<?xml version="1.0" encoding="UTF-8"?><svg id="a" xmlns="http://www.w3.org/2000/svg" xmlns:xlink="http://www.w3.org/1999/xlink" viewBox="0 0 33.89 31.18"><defs><style>.g{fill:url(#f);}.h{stroke:url(#b);}.h,.i,.j,.k{fill:none;stroke-linecap:round;stroke-miterlimit:10;stroke-width:3px;}.i{stroke:url(#c);}.j{stroke:url(#e);}.k{stroke:url(#d);}</style><linearGradient id="b" x1="34.15" y1="16.1" x2="2.29" y2="4.5" gradientTransform="matrix(1, 0, 0, 1, 0, 0)" gradientUnits="userSpaceOnUse"><stop offset="0" stop-color="#4d52d2"/><stop offset=".03" stop-color="#5053d3"/><stop offset=".3" stop-color="#7163e2"/><stop offset=".56" stop-color="#896eed"/><stop offset=".8" stop-color="#9775f4"/><stop offset="1" stop-color="#9d78f7"/></linearGradient><linearGradient id="c" x1="32.86" y1="27.36" x2=".86" y2="15.71" xlink:href="#b"/><linearGradient id="d" x1="28.49" y1="12.49" x2="7.27" y2="4.76" xlink:href="#b"/><linearGradient id="e" x1="29.49" y1="23.13" x2="6.27" y2="14.68" xlink:href="#b"/><linearGradient id="f" x1="19.14" y1="15.69" x2="15.79" y2="14.47" xlink:href="#b"/></defs><path class="h" d="M3.88,4.53h7.98c.94,0,2.17,.31,3.31,1.43,3.2,3.15,8,7.95,9.24,9.2,1.66,1.66,2.59,2.83,7.47,2.82"/><path class="i" d="M2.67,15.13h6.32c.94,0,1.85,.21,3.9,2.22,3.22,3.14,6.64,6.47,7.88,7.71,1.66,1.66,3,4.07,9.89,3.96"/><path class="k" d="M5.09,15.13c3.24,0,5,0,6.16-1.05,3.33-3.02,9.12-8.56,10.37-9.81,1.66-1.66,3.06-2.26,9.04-2.14"/><path class="j" d="M3.88,25.63h7.98c.94,0,2.17-.31,3.31-1.43,3.2-3.15,8-7.95,9.24-9.2,1.66-1.66,2.47-2.82,7.47-2.82"/><circle class="g" cx="17.47" cy="15.08" r="1.78"/></svg>